<?xml version="1.0" encoding="utf-8"?>
<!-- Generator: Adobe Illustrator 16.0.0, SVG Export Plug-In . SVG Version: 6.00 Build 0)  -->
<!DOCTYPE svg PUBLIC "-//W3C//DTD SVG 1.1//EN" "http://www.w3.org/Graphics/SVG/1.1/DTD/svg11.dtd">
<svg version="1.1" id="Layer_1" xmlns="http://www.w3.org/2000/svg" xmlns:xlink="http://www.w3.org/1999/xlink" x="0px" y="0px"
	 width="395.832px" height="147px" viewBox="0 0 395.832 147" enable-background="new 0 0 395.832 147" xml:space="preserve">
<g>
	<rect x="499" y="-20.53" fill="none" width="216.26" height="179.53"/>
	<g>
		
			<linearGradient id="SVGID_1_" gradientUnits="userSpaceOnUse" x1="449.9995" y1="69.0288" x2="596.2593" y2="69.0288" gradientTransform="matrix(1 0 0 -1 84 121.999)">
			<stop  offset="0" style="stop-color:#0B9BFA"/>
			<stop  offset="1" style="stop-color:#6B04ED"/>
		</linearGradient>
		
			<path fill="none" stroke="url(#SVGID_1_)" stroke-width="2" stroke-linecap="round" stroke-linejoin="round" stroke-miterlimit="10" d="
			M642.611,57.976c2.867,0,4.262,10.352,7.188,10.352c4.709,0,4.377-11.929,8.938-13.075c7.533-1.895,20.523-2.282,20.523-2.282l0,0
			c0,0-13.332-0.173-21.133-2.282c-4.672-1.263-4.398-13.075-9.262-13.075c-3.021,0-4.459,11.222-7.422,11.222
			c-4.209,0-6.863-33.364-14.668-33.364c-9.82,0-9.82,29.739-19.643,29.739c-9.824,0-9.824-29.739-19.646-29.739
			c-7.809,0-10.148,33.366-14.672,33.366c-2.963,0-4.398-11.222-7.422-11.222c-4.863,0-4.592,11.812-9.264,13.075
			C548.332,52.799,535,52.972,535,52.972l0,0c0,0,12.99,0.388,20.523,2.282c4.561,1.146,4.229,13.075,8.938,13.075
			c2.924,0,4.318-10.354,7.188-10.354l0,0c4.99,0,5.082,32.493,10.082,32.493c6.475,0,6.475-37.447,12.951-37.447
			c6.475,0,5.979,17.921,12.451,17.921c6.475,0,6.971-17.921,13.445-17.921s6.475,37.447,12.945,37.447
			c4.83,0,5.254-32.493,9.053-32.493"/>
		<g>
			<path fill="#2842AB" d="M555.638,122.875c-1.041,0-1.893-0.852-1.893-1.89v-5.735c0-1.828-0.785-3.276-2.738-3.276
				c-2.08,0-2.838,1.606-2.838,3.276v5.735c0,1.038-0.85,1.89-1.889,1.89s-1.922-0.852-1.922-1.89v-5.735
				c0-1.828-0.789-3.276-2.744-3.276c-2.109,0-2.834,1.606-2.834,3.276v5.735c0,1.038-0.852,1.89-1.893,1.89
				c-1.039,0-1.889-0.852-1.889-1.89v-10.368c0-1.039,0.725-1.922,1.889-1.922c1.105,0,1.893,0.883,1.893,1.922v0.254
				c0.787-1.449,2.236-2.302,3.938-2.302c2.02,0,3.5,0.914,4.41,2.363c0.98-1.418,2.711-2.363,4.855-2.363
				c3.811,0,5.576,2.585,5.576,6.365v6.051C557.56,122.023,556.677,122.875,555.638,122.875z"/>
			<path fill="#2842AB" d="M563.658,110.585c0-1.039,0.85-1.891,1.891-1.891c1.039,0,1.891,0.852,1.891,1.891v6.176
				c0,1.701,1.135,2.898,2.898,2.898c1.762,0,2.896-1.197,2.896-2.898v-6.176c0-1.039,0.854-1.891,1.891-1.891
				c1.041,0,1.891,0.852,1.891,1.891v5.892c0,3.782-2.865,6.522-6.678,6.522c-3.814,0-6.68-2.74-6.68-6.522V110.585L563.658,110.585
				z"/>
			<path fill="#2842AB" d="M592.351,112.699c-0.504,0-1.07-0.35-1.672-0.601c-0.85-0.347-1.543-0.505-2.33-0.505
				c-1.166,0-1.953,0.285-1.953,1.041c0,0.787,0.598,1.07,2.613,1.605c2.992,0.82,5.139,1.732,5.139,4.537
				c0,2.521-2.111,4.223-5.674,4.223c-1.953,0-3.779-0.535-4.979-1.418c-0.598-0.441-0.818-1.008-0.818-1.606
				c0-0.726,0.631-1.229,1.387-1.229c0.631,0,1.039,0.25,1.479,0.535c0.664,0.409,1.703,0.945,3.027,0.945
				c1.195,0,1.982-0.409,1.982-1.135c0-0.756-0.723-1.07-2.584-1.575c-4-1.07-5.166-2.647-5.166-4.853
				c0-2.302,1.922-4.097,5.641-4.097c1.197,0,2.361,0.22,3.434,0.724c1.105,0.506,1.924,1.168,1.924,2.019
				C593.8,112.099,593.39,112.699,592.351,112.699z"/>
			<path fill="#2842AB" d="M601.66,102.423c1.197,0,2.143,0.947,2.143,2.146c0,1.195-0.943,2.143-2.143,2.143
				c-1.197,0-2.143-0.946-2.143-2.143C599.517,103.371,600.462,102.423,601.66,102.423z M599.769,110.585
				c0-1.039,0.85-1.891,1.891-1.891s1.893,0.852,1.893,1.891v10.399c0,1.038-0.852,1.89-1.893,1.89s-1.891-0.852-1.891-1.89V110.585
				z"/>
			<path fill="#2842AB" d="M621.32,110.429c0.346,0.377,0.533,0.756,0.533,1.291c0,0.852-0.598,1.451-1.48,1.451
				c-0.502,0-0.818-0.127-1.166-0.381c-0.504-0.377-1.354-1.008-2.709-1.008c-2.426,0-3.688,1.891-3.688,4.002
				c0,2.11,1.262,4.002,3.688,4.002c1.354,0,2.205-0.629,2.709-1.009c0.348-0.253,0.664-0.379,1.166-0.379
				c0.883,0,1.48,0.599,1.48,1.449c0,0.536-0.188,0.916-0.533,1.292c-0.914,1.009-2.617,1.859-4.855,1.859
				c-4.568,0-7.434-3.183-7.434-7.217c0-4.031,2.865-7.215,7.434-7.215C618.703,108.569,620.406,109.421,621.32,110.429z"/>
			<path fill="#2842AB" d="M640.986,120.953c0,1.008-0.598,1.922-1.826,1.922c-1.262,0-1.826-0.914-1.826-1.922v-0.063
				c-0.725,1.229-2.111,2.11-4.098,2.11c-4.285,0-6.836-3.244-6.836-7.215c0-4.316,3.057-7.216,7.311-7.216
				c4.441,0,7.275,2.897,7.275,7.216V120.953L640.986,120.953z M633.71,111.846c-2.176,0-3.592,1.733-3.592,3.938
				c0,2.11,1.229,3.938,3.592,3.938c2.268,0,3.559-1.828,3.559-3.938C637.269,113.484,635.945,111.846,633.71,111.846z"/>
			<path fill="#2842AB" d="M647.242,103.275c0-1.04,0.852-1.891,1.891-1.891s1.891,0.851,1.891,1.891v17.71
				c0,1.038-0.852,1.89-1.891,1.89s-1.891-0.852-1.891-1.89V103.275z"/>
			<path fill="#2842AB" d="M657.478,103.275c0-1.04,0.854-1.891,1.891-1.891c1.041,0,1.893,0.851,1.893,1.891v17.71
				c0,1.038-0.852,1.89-1.893,1.89c-1.037,0-1.891-0.852-1.891-1.89V103.275z"/>
			<path fill="#2842AB" d="M669.742,128.546c-0.25,0.158-0.533,0.221-0.85,0.221c-0.914,0-1.701-0.727-1.701-1.577
				c0-0.661,0.314-1.069,0.916-1.544c1.32-1.038,2.107-1.828,2.803-3.4l-4.506-11.123c-0.096-0.221-0.158-0.44-0.158-0.692
				c0-0.945,0.693-1.733,1.703-1.733c0.816,0,1.324,0.379,1.574,1.01l3.527,9.073l2.963-9.073c0.189-0.631,0.662-1.01,1.574-1.01
				c1.008,0,1.67,0.788,1.67,1.733c0,0.252-0.061,0.534-0.125,0.692c-0.787,2.396-2.08,5.987-3.529,9.578
				C674.125,124.355,672.328,127.001,669.742,128.546z"/>
		</g>
	</g>
</g>
<g>
	<rect x="499" y="208.734" fill="none" width="216.26" height="179.529"/>
	<g>
		<path fill="none" stroke="#000000" stroke-width="2" stroke-linecap="round" stroke-linejoin="round" stroke-miterlimit="10" d="
			M642.611,286.976c2.867,0,4.262,10.352,7.188,10.352c4.709,0,4.377-11.929,8.938-13.074c7.533-1.896,20.523-2.282,20.523-2.282
			l0,0c0,0-13.332-0.173-21.133-2.282c-4.672-1.264-4.398-13.075-9.262-13.075c-3.021,0-4.459,11.222-7.422,11.222
			c-4.209,0-6.863-33.363-14.668-33.363c-9.82,0-9.82,29.738-19.643,29.738c-9.824,0-9.824-29.738-19.646-29.738
			c-7.809,0-10.148,33.365-14.672,33.365c-2.963,0-4.398-11.221-7.422-11.221c-4.863,0-4.592,11.811-9.264,13.074
			c-7.799,2.109-21.131,2.282-21.131,2.282l0,0c0,0,12.99,0.388,20.523,2.282c4.561,1.146,4.229,13.074,8.938,13.074
			c2.924,0,4.318-10.354,7.188-10.354l0,0c4.99,0,5.082,32.494,10.082,32.494c6.475,0,6.475-37.448,12.951-37.448
			c6.475,0,5.979,17.921,12.451,17.921c6.475,0,6.971-17.921,13.445-17.921s6.475,37.448,12.945,37.448
			c4.83,0,5.254-32.494,9.053-32.494"/>
		<path d="M555.638,351.875c-1.041,0-1.893-0.852-1.893-1.889v-5.736c0-1.828-0.785-3.277-2.738-3.277
			c-2.08,0-2.838,1.607-2.838,3.277v5.736c0,1.037-0.85,1.889-1.889,1.889s-1.922-0.852-1.922-1.889v-5.736
			c0-1.828-0.789-3.277-2.744-3.277c-2.109,0-2.834,1.607-2.834,3.277v5.736c0,1.037-0.852,1.889-1.893,1.889
			c-1.039,0-1.889-0.852-1.889-1.889v-10.369c0-1.039,0.725-1.922,1.889-1.922c1.105,0,1.893,0.883,1.893,1.922v0.254
			c0.787-1.449,2.236-2.301,3.938-2.301c2.02,0,3.5,0.914,4.41,2.361c0.98-1.418,2.711-2.361,4.855-2.361
			c3.811,0,5.576,2.584,5.576,6.363v6.053C557.56,351.023,556.677,351.875,555.638,351.875z"/>
		<path d="M563.658,339.585c0-1.039,0.85-1.891,1.891-1.891c1.039,0,1.891,0.852,1.891,1.891v6.176c0,1.701,1.135,2.898,2.898,2.898
			c1.762,0,2.896-1.197,2.896-2.898v-6.176c0-1.039,0.854-1.891,1.891-1.891c1.041,0,1.891,0.852,1.891,1.891v5.891
			c0,3.783-2.865,6.523-6.678,6.523c-3.814,0-6.68-2.74-6.68-6.523V339.585L563.658,339.585z"/>
		<path d="M592.351,341.699c-0.504,0-1.07-0.35-1.672-0.602c-0.85-0.346-1.543-0.504-2.33-0.504c-1.166,0-1.953,0.285-1.953,1.041
			c0,0.787,0.598,1.07,2.613,1.605c2.992,0.82,5.139,1.732,5.139,4.537c0,2.521-2.111,4.223-5.674,4.223
			c-1.953,0-3.779-0.535-4.979-1.418c-0.598-0.441-0.818-1.008-0.818-1.607c0-0.725,0.631-1.229,1.387-1.229
			c0.631,0,1.039,0.25,1.479,0.535c0.664,0.41,1.703,0.945,3.027,0.945c1.195,0,1.982-0.408,1.982-1.135
			c0-0.756-0.723-1.07-2.584-1.576c-4-1.068-5.166-2.646-5.166-4.852c0-2.301,1.922-4.096,5.641-4.096
			c1.197,0,2.361,0.219,3.434,0.723c1.105,0.506,1.924,1.168,1.924,2.018C593.8,341.099,593.39,341.699,592.351,341.699z"/>
		<path d="M601.66,331.423c1.197,0,2.143,0.947,2.143,2.146c0,1.195-0.943,2.143-2.143,2.143c-1.197,0-2.143-0.947-2.143-2.143
			C599.517,332.371,600.462,331.423,601.66,331.423z M599.769,339.585c0-1.039,0.85-1.891,1.891-1.891s1.893,0.852,1.893,1.891v10.4
			c0,1.037-0.852,1.889-1.893,1.889s-1.891-0.852-1.891-1.889V339.585z"/>
		<path d="M621.32,339.429c0.346,0.377,0.533,0.756,0.533,1.291c0,0.852-0.598,1.451-1.48,1.451c-0.502,0-0.818-0.127-1.166-0.381
			c-0.504-0.377-1.354-1.008-2.709-1.008c-2.426,0-3.688,1.891-3.688,4.002c0,2.109,1.262,4.002,3.688,4.002
			c1.354,0,2.205-0.629,2.709-1.008c0.348-0.254,0.664-0.379,1.166-0.379c0.883,0,1.48,0.598,1.48,1.447
			c0,0.537-0.188,0.916-0.533,1.293c-0.914,1.01-2.617,1.859-4.855,1.859c-4.568,0-7.434-3.182-7.434-7.217
			c0-4.031,2.865-7.215,7.434-7.215C618.703,337.57,620.406,338.421,621.32,339.429z"/>
		<path d="M640.986,349.953c0,1.008-0.598,1.922-1.826,1.922c-1.262,0-1.826-0.914-1.826-1.922v-0.064
			c-0.725,1.23-2.111,2.111-4.098,2.111c-4.285,0-6.836-3.244-6.836-7.215c0-4.316,3.057-7.215,7.311-7.215
			c4.441,0,7.275,2.896,7.275,7.215V349.953L640.986,349.953z M633.71,340.845c-2.176,0-3.592,1.734-3.592,3.939
			c0,2.109,1.229,3.938,3.592,3.938c2.268,0,3.559-1.828,3.559-3.938C637.269,342.484,635.945,340.845,633.71,340.845z"/>
		<path d="M647.242,332.275c0-1.039,0.852-1.891,1.891-1.891s1.891,0.852,1.891,1.891v17.711c0,1.037-0.852,1.889-1.891,1.889
			s-1.891-0.852-1.891-1.889V332.275z"/>
		<path d="M657.478,332.275c0-1.039,0.854-1.891,1.891-1.891c1.041,0,1.893,0.852,1.893,1.891v17.711
			c0,1.037-0.852,1.889-1.893,1.889c-1.037,0-1.891-0.852-1.891-1.889V332.275z"/>
		<path d="M669.742,357.546c-0.25,0.158-0.533,0.221-0.85,0.221c-0.914,0-1.701-0.727-1.701-1.576c0-0.662,0.314-1.07,0.916-1.545
			c1.32-1.037,2.107-1.828,2.803-3.4l-4.506-11.123c-0.096-0.221-0.158-0.441-0.158-0.693c0-0.943,0.693-1.732,1.703-1.732
			c0.816,0,1.324,0.379,1.574,1.01l3.527,9.074l2.963-9.074c0.189-0.631,0.662-1.01,1.574-1.01c1.008,0,1.67,0.789,1.67,1.732
			c0,0.252-0.061,0.535-0.125,0.693c-0.787,2.395-2.08,5.988-3.529,9.578C674.125,353.355,672.328,356.001,669.742,357.546z"/>
	</g>
</g>
<g>
	<rect x="499" y="449.734" fill="none" width="216.26" height="179.529"/>
	<g>
		
			<linearGradient id="SVGID_2_" gradientUnits="userSpaceOnUse" x1="449.9976" y1="-400.9722" x2="596.2593" y2="-400.9722" gradientTransform="matrix(1 0 0 -1 84 121.999)">
			<stop  offset="0" style="stop-color:#CCCCCC"/>
			<stop  offset="1" style="stop-color:#808080"/>
		</linearGradient>
		
			<path fill="none" stroke="url(#SVGID_2_)" stroke-width="2" stroke-linecap="round" stroke-linejoin="round" stroke-miterlimit="10" d="
			M642.611,527.976c2.867,0,4.262,10.352,7.188,10.352c4.709,0,4.377-11.928,8.938-13.074c7.533-1.895,20.523-2.283,20.523-2.283
			l0,0c0,0-13.332-0.172-21.133-2.281c-4.672-1.264-4.398-13.074-9.262-13.074c-3.021,0-4.459,11.221-7.422,11.221
			c-4.209,0-6.863-33.363-14.668-33.363c-9.82,0-9.82,29.738-19.643,29.738c-9.824,0-9.824-29.738-19.646-29.738
			c-7.809,0-10.148,33.365-14.672,33.365c-2.963,0-4.398-11.221-7.422-11.221c-4.863,0-4.592,11.811-9.264,13.074
			c-7.799,2.109-21.131,2.281-21.131,2.281l0,0c0,0,12.99,0.389,20.523,2.283c4.561,1.146,4.229,13.074,8.938,13.074
			c2.924,0,4.318-10.354,7.188-10.354l0,0c4.99,0,5.082,32.494,10.082,32.494c6.475,0,6.475-37.447,12.951-37.447
			c6.475,0,5.979,17.92,12.451,17.92c6.475,0,6.971-17.92,13.445-17.92s6.475,37.447,12.945,37.447
			c4.83,0,5.254-32.494,9.053-32.494"/>
		<g>
			<path fill="#333333" d="M555.638,592.875c-1.041,0-1.893-0.852-1.893-1.889v-5.736c0-1.828-0.785-3.277-2.738-3.277
				c-2.08,0-2.838,1.607-2.838,3.277v5.736c0,1.037-0.85,1.889-1.889,1.889s-1.922-0.852-1.922-1.889v-5.736
				c0-1.828-0.789-3.277-2.744-3.277c-2.109,0-2.834,1.607-2.834,3.277v5.736c0,1.037-0.852,1.889-1.893,1.889
				c-1.039,0-1.889-0.852-1.889-1.889v-10.369c0-1.039,0.725-1.922,1.889-1.922c1.105,0,1.893,0.883,1.893,1.922v0.254
				c0.787-1.449,2.236-2.301,3.938-2.301c2.02,0,3.5,0.914,4.41,2.361c0.98-1.418,2.711-2.361,4.855-2.361
				c3.811,0,5.576,2.584,5.576,6.363v6.053C557.56,592.023,556.677,592.875,555.638,592.875z"/>
			<path fill="#333333" d="M563.658,580.585c0-1.039,0.85-1.891,1.891-1.891c1.039,0,1.891,0.852,1.891,1.891v6.176
				c0,1.701,1.135,2.898,2.898,2.898c1.762,0,2.896-1.197,2.896-2.898v-6.176c0-1.039,0.854-1.891,1.891-1.891
				c1.041,0,1.891,0.852,1.891,1.891v5.891c0,3.783-2.865,6.523-6.678,6.523c-3.814,0-6.68-2.74-6.68-6.523V580.585L563.658,580.585
				z"/>
			<path fill="#333333" d="M592.351,582.699c-0.504,0-1.07-0.35-1.672-0.602c-0.85-0.346-1.543-0.504-2.33-0.504
				c-1.166,0-1.953,0.285-1.953,1.041c0,0.787,0.598,1.07,2.613,1.605c2.992,0.82,5.139,1.732,5.139,4.537
				c0,2.521-2.111,4.223-5.674,4.223c-1.953,0-3.779-0.535-4.979-1.418c-0.598-0.441-0.818-1.008-0.818-1.607
				c0-0.725,0.631-1.229,1.387-1.229c0.631,0,1.039,0.25,1.479,0.535c0.664,0.41,1.703,0.945,3.027,0.945
				c1.195,0,1.982-0.408,1.982-1.135c0-0.756-0.723-1.07-2.584-1.576c-4-1.068-5.166-2.646-5.166-4.852
				c0-2.301,1.922-4.096,5.641-4.096c1.197,0,2.361,0.219,3.434,0.723c1.105,0.506,1.924,1.168,1.924,2.018
				C593.8,582.099,593.39,582.699,592.351,582.699z"/>
			<path fill="#333333" d="M601.66,572.423c1.197,0,2.143,0.947,2.143,2.146c0,1.195-0.943,2.143-2.143,2.143
				c-1.197,0-2.143-0.947-2.143-2.143C599.517,573.371,600.462,572.423,601.66,572.423z M599.769,580.585
				c0-1.039,0.85-1.891,1.891-1.891s1.893,0.852,1.893,1.891v10.4c0,1.037-0.852,1.889-1.893,1.889s-1.891-0.852-1.891-1.889
				V580.585z"/>
			<path fill="#333333" d="M621.32,580.429c0.346,0.377,0.533,0.756,0.533,1.291c0,0.852-0.598,1.451-1.48,1.451
				c-0.502,0-0.818-0.127-1.166-0.381c-0.504-0.377-1.354-1.008-2.709-1.008c-2.426,0-3.688,1.891-3.688,4.002
				s1.262,4.002,3.688,4.002c1.354,0,2.205-0.629,2.709-1.008c0.348-0.254,0.664-0.379,1.166-0.379c0.883,0,1.48,0.598,1.48,1.447
				c0,0.537-0.188,0.916-0.533,1.293c-0.914,1.01-2.617,1.859-4.855,1.859c-4.568,0-7.434-3.182-7.434-7.217
				c0-4.031,2.865-7.215,7.434-7.215C618.703,578.57,620.406,579.421,621.32,580.429z"/>
			<path fill="#333333" d="M640.986,590.953c0,1.008-0.598,1.922-1.826,1.922c-1.262,0-1.826-0.914-1.826-1.922v-0.064
				c-0.725,1.23-2.111,2.111-4.098,2.111c-4.285,0-6.836-3.244-6.836-7.215c0-4.316,3.057-7.215,7.311-7.215
				c4.441,0,7.275,2.896,7.275,7.215V590.953L640.986,590.953z M633.71,581.845c-2.176,0-3.592,1.734-3.592,3.939
				c0,2.109,1.229,3.938,3.592,3.938c2.268,0,3.559-1.828,3.559-3.938C637.269,583.484,635.945,581.845,633.71,581.845z"/>
			<path fill="#333333" d="M647.242,573.275c0-1.039,0.852-1.891,1.891-1.891s1.891,0.852,1.891,1.891v17.711
				c0,1.037-0.852,1.889-1.891,1.889s-1.891-0.852-1.891-1.889V573.275z"/>
			<path fill="#333333" d="M657.478,573.275c0-1.039,0.854-1.891,1.891-1.891c1.041,0,1.893,0.852,1.893,1.891v17.711
				c0,1.037-0.852,1.889-1.893,1.889c-1.037,0-1.891-0.852-1.891-1.889V573.275z"/>
			<path fill="#333333" d="M669.742,598.546c-0.25,0.158-0.533,0.221-0.85,0.221c-0.914,0-1.701-0.727-1.701-1.576
				c0-0.662,0.314-1.07,0.916-1.545c1.32-1.037,2.107-1.828,2.803-3.4l-4.506-11.123c-0.096-0.221-0.158-0.441-0.158-0.693
				c0-0.943,0.693-1.732,1.703-1.732c0.816,0,1.324,0.379,1.574,1.01l3.527,9.074l2.963-9.074c0.189-0.631,0.662-1.01,1.574-1.01
				c1.008,0,1.67,0.789,1.67,1.732c0,0.252-0.061,0.535-0.125,0.693c-0.787,2.395-2.08,5.988-3.529,9.578
				C674.125,594.355,672.328,597.001,669.742,598.546z"/>
		</g>
	</g>
</g>
<g>
	<rect x="499" y="689.47" fill="none" width="216.26" height="179.531"/>
	<g>
		<path fill="none" stroke="#FFFFFF" stroke-width="2" stroke-linecap="round" stroke-linejoin="round" stroke-miterlimit="10" d="
			M642.611,767.71c2.867,0,4.262,10.352,7.188,10.352c4.709,0,4.377-11.928,8.938-13.074c7.533-1.895,20.523-2.281,20.523-2.281l0,0
			c0,0-13.332-0.174-21.133-2.283c-4.672-1.262-4.398-13.074-9.262-13.074c-3.021,0-4.459,11.223-7.422,11.223
			c-4.209,0-6.863-33.365-14.668-33.365c-9.82,0-9.82,29.74-19.643,29.74c-9.824,0-9.824-29.74-19.646-29.74
			c-7.809,0-10.148,33.367-14.672,33.367c-2.963,0-4.398-11.223-7.422-11.223c-4.863,0-4.592,11.812-9.264,13.074
			c-7.799,2.109-21.131,2.283-21.131,2.283l0,0c0,0,12.99,0.387,20.523,2.281c4.561,1.146,4.229,13.076,8.938,13.076
			c2.924,0,4.318-10.355,7.188-10.355l0,0c4.99,0,5.082,32.494,10.082,32.494c6.475,0,6.475-37.447,12.951-37.447
			c6.475,0,5.979,17.92,12.451,17.92c6.475,0,6.971-17.92,13.445-17.92s6.475,37.447,12.945,37.447
			c4.83,0,5.254-32.494,9.053-32.494"/>
		<g>
			<path fill="#FFFFFF" d="M555.638,832.609c-1.041,0-1.893-0.852-1.893-1.889v-5.736c0-1.826-0.785-3.275-2.738-3.275
				c-2.08,0-2.838,1.607-2.838,3.275v5.736c0,1.037-0.85,1.889-1.889,1.889s-1.922-0.852-1.922-1.889v-5.736
				c0-1.826-0.789-3.275-2.744-3.275c-2.109,0-2.834,1.607-2.834,3.275v5.736c0,1.037-0.852,1.889-1.893,1.889
				c-1.039,0-1.889-0.852-1.889-1.889v-10.369c0-1.039,0.725-1.922,1.889-1.922c1.105,0,1.893,0.883,1.893,1.922v0.254
				c0.787-1.449,2.236-2.301,3.938-2.301c2.02,0,3.5,0.914,4.41,2.363c0.98-1.418,2.711-2.363,4.855-2.363
				c3.811,0,5.576,2.584,5.576,6.365v6.051C557.56,831.759,556.677,832.609,555.638,832.609z"/>
			<path fill="#FFFFFF" d="M563.658,820.32c0-1.037,0.85-1.891,1.891-1.891c1.039,0,1.891,0.854,1.891,1.891v6.176
				c0,1.703,1.135,2.898,2.898,2.898c1.762,0,2.896-1.195,2.896-2.898v-6.176c0-1.037,0.854-1.891,1.891-1.891
				c1.041,0,1.891,0.854,1.891,1.891v5.893c0,3.783-2.865,6.523-6.678,6.523c-3.814,0-6.68-2.74-6.68-6.523V820.32L563.658,820.32z"
				/>
			<path fill="#FFFFFF" d="M592.351,822.433c-0.504,0-1.07-0.348-1.672-0.6c-0.85-0.346-1.543-0.504-2.33-0.504
				c-1.166,0-1.953,0.285-1.953,1.041c0,0.787,0.598,1.07,2.613,1.605c2.992,0.82,5.139,1.732,5.139,4.537
				c0,2.521-2.111,4.223-5.674,4.223c-1.953,0-3.779-0.535-4.979-1.418c-0.598-0.441-0.818-1.01-0.818-1.607
				c0-0.725,0.631-1.229,1.387-1.229c0.631,0,1.039,0.25,1.479,0.535c0.664,0.408,1.703,0.945,3.027,0.945
				c1.195,0,1.982-0.41,1.982-1.135c0-0.756-0.723-1.07-2.584-1.576c-4-1.07-5.166-2.646-5.166-4.852
				c0-2.303,1.922-4.098,5.641-4.098c1.197,0,2.361,0.221,3.434,0.725c1.105,0.506,1.924,1.168,1.924,2.018
				C593.8,821.833,593.39,822.433,592.351,822.433z"/>
			<path fill="#FFFFFF" d="M601.66,812.16c1.197,0,2.143,0.947,2.143,2.145c0,1.195-0.943,2.143-2.143,2.143
				c-1.197,0-2.143-0.945-2.143-2.143S600.462,812.16,601.66,812.16z M599.769,820.32c0-1.037,0.85-1.891,1.891-1.891
				s1.893,0.854,1.893,1.891v10.4c0,1.037-0.852,1.889-1.893,1.889s-1.891-0.852-1.891-1.889V820.32z"/>
			<path fill="#FFFFFF" d="M621.32,820.164c0.346,0.377,0.533,0.756,0.533,1.291c0,0.852-0.598,1.451-1.48,1.451
				c-0.502,0-0.818-0.127-1.166-0.379c-0.504-0.379-1.354-1.01-2.709-1.01c-2.426,0-3.688,1.891-3.688,4.002
				s1.262,4.002,3.688,4.002c1.354,0,2.205-0.629,2.709-1.008c0.348-0.254,0.664-0.379,1.166-0.379c0.883,0,1.48,0.598,1.48,1.449
				c0,0.535-0.188,0.916-0.533,1.291c-0.914,1.01-2.617,1.859-4.855,1.859c-4.568,0-7.434-3.182-7.434-7.217
				c0-4.031,2.865-7.215,7.434-7.215C618.703,818.304,620.406,819.156,621.32,820.164z"/>
			<path fill="#FFFFFF" d="M640.986,830.687c0,1.01-0.598,1.924-1.826,1.924c-1.262,0-1.826-0.914-1.826-1.924v-0.062
				c-0.725,1.229-2.111,2.111-4.098,2.111c-4.285,0-6.836-3.244-6.836-7.217c0-4.314,3.057-7.215,7.311-7.215
				c4.441,0,7.275,2.898,7.275,7.215V830.687L640.986,830.687z M633.71,821.582c-2.176,0-3.592,1.734-3.592,3.938
				c0,2.111,1.229,3.939,3.592,3.939c2.268,0,3.559-1.828,3.559-3.939C637.269,823.22,635.945,821.582,633.71,821.582z"/>
			<path fill="#FFFFFF" d="M647.242,813.011c0-1.041,0.852-1.891,1.891-1.891s1.891,0.85,1.891,1.891v17.709
				c0,1.039-0.852,1.891-1.891,1.891s-1.891-0.852-1.891-1.891V813.011z"/>
			<path fill="#FFFFFF" d="M657.478,813.011c0-1.041,0.854-1.891,1.891-1.891c1.041,0,1.893,0.85,1.893,1.891v17.709
				c0,1.039-0.852,1.891-1.893,1.891c-1.037,0-1.891-0.852-1.891-1.891V813.011z"/>
			<path fill="#FFFFFF" d="M669.742,838.281c-0.25,0.158-0.533,0.221-0.85,0.221c-0.914,0-1.701-0.727-1.701-1.576
				c0-0.662,0.314-1.07,0.916-1.545c1.32-1.037,2.107-1.828,2.803-3.4l-4.506-11.121c-0.096-0.223-0.158-0.441-0.158-0.693
				c0-0.945,0.693-1.734,1.703-1.734c0.816,0,1.324,0.379,1.574,1.01l3.527,9.074l2.963-9.074c0.189-0.631,0.662-1.01,1.574-1.01
				c1.008,0,1.67,0.789,1.67,1.734c0,0.252-0.061,0.535-0.125,0.693c-0.787,2.395-2.08,5.986-3.529,9.576
				C674.125,834.091,672.328,836.738,669.742,838.281z"/>
		</g>
	</g>
</g>
<g>
	
		<linearGradient id="SVGID_3_" gradientUnits="userSpaceOnUse" x1="414.9995" y1="-890.2368" x2="631.2593" y2="-890.2368" gradientTransform="matrix(1 0 0 -1 84 121.999)">
		<stop  offset="0" style="stop-color:#0B9BFA"/>
		<stop  offset="1" style="stop-color:#6B04ED"/>
	</linearGradient>
	<rect x="499" y="922.47" fill="url(#SVGID_3_)" width="216.26" height="179.531"/>
	<g>
		<path fill="none" stroke="#FFFFFF" stroke-width="2" stroke-linecap="round" stroke-linejoin="round" stroke-miterlimit="10" d="
			M642.611,1000.71c2.867,0,4.262,10.352,7.188,10.352c4.709,0,4.377-11.928,8.938-13.074c7.533-1.895,20.523-2.281,20.523-2.281
			l0,0c0,0-13.332-0.174-21.133-2.283c-4.672-1.262-4.398-13.074-9.262-13.074c-3.021,0-4.459,11.223-7.422,11.223
			c-4.209,0-6.863-33.365-14.668-33.365c-9.82,0-9.82,29.74-19.643,29.74c-9.824,0-9.824-29.74-19.646-29.74
			c-7.809,0-10.148,33.367-14.672,33.367c-2.963,0-4.398-11.223-7.422-11.223c-4.863,0-4.592,11.812-9.264,13.074
			c-7.799,2.109-21.131,2.283-21.131,2.283l0,0c0,0,12.99,0.387,20.523,2.281c4.561,1.146,4.229,13.076,8.938,13.076
			c2.924,0,4.318-10.355,7.188-10.355l0,0c4.99,0,5.082,32.494,10.082,32.494c6.475,0,6.475-37.447,12.951-37.447
			c6.475,0,5.979,17.92,12.451,17.92c6.475,0,6.971-17.92,13.445-17.92s6.475,37.447,12.945,37.447
			c4.83,0,5.254-32.494,9.053-32.494"/>
		<g>
			<path fill="#FFFFFF" d="M555.638,1065.609c-1.041,0-1.893-0.852-1.893-1.889v-5.736c0-1.826-0.785-3.275-2.738-3.275
				c-2.08,0-2.838,1.607-2.838,3.275v5.736c0,1.037-0.85,1.889-1.889,1.889s-1.922-0.852-1.922-1.889v-5.736
				c0-1.826-0.789-3.275-2.744-3.275c-2.109,0-2.834,1.607-2.834,3.275v5.736c0,1.037-0.852,1.889-1.893,1.889
				c-1.039,0-1.889-0.852-1.889-1.889v-10.369c0-1.039,0.725-1.922,1.889-1.922c1.105,0,1.893,0.883,1.893,1.922v0.254
				c0.787-1.449,2.236-2.301,3.938-2.301c2.02,0,3.5,0.914,4.41,2.363c0.98-1.418,2.711-2.363,4.855-2.363
				c3.811,0,5.576,2.584,5.576,6.365v6.051C557.56,1064.759,556.677,1065.609,555.638,1065.609z"/>
			<path fill="#FFFFFF" d="M563.658,1053.32c0-1.037,0.85-1.891,1.891-1.891c1.039,0,1.891,0.854,1.891,1.891v6.176
				c0,1.703,1.135,2.898,2.898,2.898c1.762,0,2.896-1.195,2.896-2.898v-6.176c0-1.037,0.854-1.891,1.891-1.891
				c1.041,0,1.891,0.854,1.891,1.891v5.893c0,3.783-2.865,6.521-6.678,6.521c-3.814,0-6.68-2.738-6.68-6.521V1053.32
				L563.658,1053.32z"/>
			<path fill="#FFFFFF" d="M592.351,1055.433c-0.504,0-1.07-0.348-1.672-0.6c-0.85-0.346-1.543-0.504-2.33-0.504
				c-1.166,0-1.953,0.285-1.953,1.041c0,0.787,0.598,1.068,2.613,1.605c2.992,0.82,5.139,1.732,5.139,4.537
				c0,2.521-2.111,4.223-5.674,4.223c-1.953,0-3.779-0.535-4.979-1.418c-0.598-0.441-0.818-1.01-0.818-1.607
				c0-0.725,0.631-1.229,1.387-1.229c0.631,0,1.039,0.25,1.479,0.535c0.664,0.408,1.703,0.945,3.027,0.945
				c1.195,0,1.982-0.41,1.982-1.135c0-0.756-0.723-1.07-2.584-1.576c-4-1.07-5.166-2.646-5.166-4.854
				c0-2.301,1.922-4.096,5.641-4.096c1.197,0,2.361,0.221,3.434,0.725c1.105,0.506,1.924,1.166,1.924,2.018
				C593.8,1054.833,593.39,1055.433,592.351,1055.433z"/>
			<path fill="#FFFFFF" d="M601.66,1045.16c1.197,0,2.143,0.947,2.143,2.145c0,1.195-0.943,2.143-2.143,2.143
				c-1.197,0-2.143-0.945-2.143-2.143C599.517,1046.105,600.462,1045.16,601.66,1045.16z M599.769,1053.32
				c0-1.037,0.85-1.891,1.891-1.891s1.893,0.854,1.893,1.891v10.4c0,1.037-0.852,1.889-1.893,1.889s-1.891-0.852-1.891-1.889
				V1053.32z"/>
			<path fill="#FFFFFF" d="M621.32,1053.164c0.346,0.377,0.533,0.756,0.533,1.291c0,0.852-0.598,1.451-1.48,1.451
				c-0.502,0-0.818-0.127-1.166-0.379c-0.504-0.379-1.354-1.01-2.709-1.01c-2.426,0-3.688,1.891-3.688,4.002
				s1.262,4.002,3.688,4.002c1.354,0,2.205-0.629,2.709-1.008c0.348-0.254,0.664-0.379,1.166-0.379c0.883,0,1.48,0.598,1.48,1.449
				c0,0.535-0.188,0.916-0.533,1.291c-0.914,1.01-2.617,1.859-4.855,1.859c-4.568,0-7.434-3.182-7.434-7.217
				c0-4.031,2.865-7.215,7.434-7.215C618.703,1051.304,620.406,1052.156,621.32,1053.164z"/>
			<path fill="#FFFFFF" d="M640.986,1063.687c0,1.01-0.598,1.924-1.826,1.924c-1.262,0-1.826-0.914-1.826-1.924v-0.062
				c-0.725,1.229-2.111,2.111-4.098,2.111c-4.285,0-6.836-3.244-6.836-7.217c0-4.314,3.057-7.215,7.311-7.215
				c4.441,0,7.275,2.898,7.275,7.215V1063.687L640.986,1063.687z M633.71,1054.582c-2.176,0-3.592,1.734-3.592,3.938
				c0,2.111,1.229,3.939,3.592,3.939c2.268,0,3.559-1.828,3.559-3.939C637.269,1056.22,635.945,1054.582,633.71,1054.582z"/>
			<path fill="#FFFFFF" d="M647.242,1046.011c0-1.041,0.852-1.891,1.891-1.891s1.891,0.85,1.891,1.891v17.709
				c0,1.039-0.852,1.891-1.891,1.891s-1.891-0.852-1.891-1.891V1046.011z"/>
			<path fill="#FFFFFF" d="M657.478,1046.011c0-1.041,0.854-1.891,1.891-1.891c1.041,0,1.893,0.85,1.893,1.891v17.709
				c0,1.039-0.852,1.891-1.893,1.891c-1.037,0-1.891-0.852-1.891-1.891V1046.011z"/>
			<path fill="#FFFFFF" d="M669.742,1071.281c-0.25,0.158-0.533,0.221-0.85,0.221c-0.914,0-1.701-0.727-1.701-1.576
				c0-0.662,0.314-1.07,0.916-1.545c1.32-1.037,2.107-1.828,2.803-3.4l-4.506-11.123c-0.096-0.221-0.158-0.439-0.158-0.691
				c0-0.945,0.693-1.734,1.703-1.734c0.816,0,1.324,0.379,1.574,1.01l3.527,9.074l2.963-9.074c0.189-0.631,0.662-1.01,1.574-1.01
				c1.008,0,1.67,0.789,1.67,1.734c0,0.252-0.061,0.535-0.125,0.691c-0.787,2.396-2.08,5.988-3.529,9.578
				C674.125,1067.091,672.328,1069.738,669.742,1071.281z"/>
		</g>
	</g>
</g>
<g>
	<rect x="0.169" fill="none" width="395.831" height="147"/>
	<g>
		
			<linearGradient id="SVGID_4_" gradientUnits="userSpaceOnUse" x1="-67" y1="48.4995" x2="79.2588" y2="48.4995" gradientTransform="matrix(1 0 0 -1 84 121.999)">
			<stop  offset="0" style="stop-color:#0B9BFA"/>
			<stop  offset="1" style="stop-color:#6B04ED"/>
		</linearGradient>
		
			<path fill="none" stroke="url(#SVGID_4_)" stroke-width="2" stroke-linecap="round" stroke-linejoin="round" stroke-miterlimit="10" d="
			M125.611,78.503c2.868,0,4.262,10.354,7.187,10.354c4.709,0,4.377-11.93,8.937-13.074c7.534-1.896,20.524-2.284,20.524-2.284V73.5
			c0,0-13.332-0.174-21.133-2.283c-4.671-1.264-4.398-13.075-9.262-13.075c-3.021,0-4.459,11.222-7.422,11.222
			c-4.208,0-6.862-33.364-14.667-33.364c-9.821,0-9.821,29.739-19.643,29.739C80.31,65.739,80.31,36,70.487,36
			c-7.809,0-10.148,33.366-14.672,33.366c-2.963,0-4.398-11.222-7.422-11.222c-4.863,0-4.591,11.812-9.263,13.075
			C31.332,73.329,18,73.502,18,73.502V73.5c0,0,12.989,0.389,20.523,2.283c4.56,1.146,4.228,13.075,8.937,13.075
			c2.925,0,4.318-10.354,7.187-10.354l0,0C59.638,78.503,59.73,111,64.73,111c6.475,0,6.475-37.449,12.951-37.449
			c6.475,0,5.978,17.921,12.452,17.921c6.474,0,6.97-17.921,13.445-17.921c6.474,0,6.474,37.449,12.944,37.449
			c4.83,0,5.255-32.496,9.054-32.496"/>
		<g>
			<path fill="#2842AB" d="M208.523,84.179c-1.425,0-2.59-1.165-2.59-2.588v-7.855c0-2.502-1.076-4.486-3.752-4.486
				c-2.85,0-3.885,2.202-3.885,4.486v7.855c0,1.423-1.166,2.588-2.589,2.588c-1.424,0-2.633-1.165-2.633-2.588v-7.855
				c0-2.502-1.078-4.486-3.756-4.486c-2.891,0-3.882,2.202-3.882,4.486v7.855c0,1.423-1.164,2.588-2.59,2.588
				c-1.424,0-2.589-1.165-2.589-2.588V67.393c0-1.425,0.993-2.632,2.589-2.632c1.51,0,2.59,1.207,2.59,2.632v0.345
				c1.077-1.982,3.065-3.15,5.393-3.15c2.763,0,4.792,1.252,6.04,3.237c1.341-1.942,3.712-3.237,6.647-3.237
				c5.222,0,7.638,3.54,7.638,8.719v8.286C211.155,83.014,209.947,84.179,208.523,84.179z"/>
			<path fill="#2842AB" d="M219.507,67.35c0-1.423,1.164-2.589,2.59-2.589c1.423,0,2.589,1.166,2.589,2.589v8.457
				c0,2.331,1.554,3.97,3.97,3.97s3.969-1.639,3.969-3.97V67.35c0-1.423,1.166-2.589,2.588-2.589c1.427,0,2.591,1.166,2.591,2.589
				v8.067c0,5.181-3.927,8.934-9.146,8.934c-5.223,0-9.148-3.753-9.148-8.934V67.35H219.507z"/>
			<path fill="#2842AB" d="M258.804,70.242c-0.689,0-1.467-0.476-2.288-0.82c-1.163-0.474-2.114-0.69-3.192-0.69
				c-1.597,0-2.675,0.389-2.675,1.425c0,1.078,0.819,1.466,3.581,2.201c4.098,1.122,7.034,2.371,7.034,6.212
				c0,3.453-2.894,5.782-7.769,5.782c-2.677,0-5.178-0.731-6.818-1.938c-0.819-0.606-1.122-1.383-1.122-2.203
				c0-0.994,0.864-1.683,1.899-1.683c0.863,0,1.424,0.343,2.025,0.733c0.908,0.561,2.333,1.293,4.146,1.293
				c1.639,0,2.717-0.561,2.717-1.551c0-1.037-0.99-1.467-3.538-2.16c-5.479-1.465-7.076-3.625-7.076-6.646
				c0-3.15,2.633-5.609,7.724-5.609c1.641,0,3.236,0.302,4.704,0.991c1.511,0.693,2.634,1.599,2.634,2.764
				C260.791,69.421,260.228,70.242,258.804,70.242z"/>
			<path fill="#2842AB" d="M271.554,56.171c1.641,0,2.935,1.298,2.935,2.938c0,1.639-1.294,2.932-2.935,2.932
				c-1.639,0-2.934-1.293-2.934-2.932C268.621,57.469,269.916,56.171,271.554,56.171z M268.964,67.35
				c0-1.423,1.164-2.589,2.59-2.589c1.423,0,2.59,1.166,2.59,2.589v14.241c0,1.423-1.167,2.588-2.59,2.588
				c-1.426,0-2.59-1.165-2.59-2.588V67.35z"/>
			<path fill="#2842AB" d="M298.478,67.135c0.475,0.516,0.734,1.034,0.734,1.768c0,1.166-0.82,1.987-2.029,1.987
				c-0.688,0-1.123-0.174-1.596-0.521c-0.691-0.516-1.857-1.38-3.713-1.38c-3.322,0-5.047,2.59-5.047,5.481
				c0,2.89,1.725,5.48,5.047,5.48c1.854,0,3.021-0.861,3.713-1.383c0.473-0.346,0.906-0.518,1.596-0.518
				c1.209,0,2.029,0.818,2.029,1.984c0,0.733-0.26,1.254-0.734,1.77c-1.251,1.381-3.582,2.546-6.646,2.546
				c-6.256,0-10.182-4.356-10.182-9.882c0-5.521,3.926-9.882,10.182-9.882C294.896,64.587,297.227,65.755,298.478,67.135z"/>
			<path fill="#2842AB" d="M325.416,81.546c0,1.383-0.819,2.633-2.504,2.633c-1.727,0-2.502-1.25-2.502-2.633v-0.088
				c-0.992,1.685-2.891,2.893-5.609,2.893c-5.869,0-9.363-4.441-9.363-9.881c0-5.912,4.188-9.883,10.012-9.883
				c6.084,0,9.967,3.971,9.967,9.883V81.546L325.416,81.546z M315.449,69.076c-2.98,0-4.92,2.376-4.92,5.395
				c0,2.89,1.684,5.396,4.92,5.396c3.106,0,4.875-2.506,4.875-5.396C320.324,71.321,318.511,69.076,315.449,69.076z"/>
			<path fill="#2842AB" d="M333.98,57.338c0-1.426,1.166-2.589,2.59-2.589s2.59,1.163,2.59,2.589v24.253
				c0,1.423-1.166,2.588-2.59,2.588s-2.59-1.165-2.59-2.588V57.338z"/>
			<path fill="#2842AB" d="M348.001,57.338c0-1.426,1.166-2.589,2.588-2.589c1.427,0,2.592,1.163,2.592,2.589v24.253
				c0,1.423-1.165,2.588-2.592,2.588c-1.422,0-2.588-1.165-2.588-2.588V57.338z"/>
			<path fill="#2842AB" d="M364.796,91.947c-0.344,0.217-0.731,0.303-1.162,0.303c-1.252,0-2.331-0.994-2.331-2.158
				c0-0.906,0.432-1.467,1.254-2.115c1.812-1.422,2.888-2.504,3.839-4.656l-6.172-15.235c-0.127-0.302-0.215-0.604-0.215-0.948
				c0-1.296,0.949-2.374,2.33-2.374c1.121,0,1.813,0.518,2.156,1.381l4.834,12.427l4.058-12.427
				c0.259-0.863,0.905-1.381,2.157-1.381c1.379,0,2.287,1.078,2.287,2.374c0,0.345-0.086,0.732-0.174,0.948
				c-1.078,3.28-2.848,8.2-4.834,13.12C370.798,86.208,368.337,89.833,364.796,91.947z"/>
		</g>
	</g>
</g>
<rect x="0.169" y="465.001" fill="none" width="395.831" height="147"/>
<g>
	
		<linearGradient id="SVGID_5_" gradientUnits="userSpaceOnUse" x1="-66.833" y1="-417.5015" x2="79.4282" y2="-417.5015" gradientTransform="matrix(1 0 0 -1 84 121.999)">
		<stop  offset="0" style="stop-color:#CCCCCC"/>
		<stop  offset="1" style="stop-color:#808080"/>
	</linearGradient>
	
		<path fill="none" stroke="url(#SVGID_5_)" stroke-width="2" stroke-linecap="round" stroke-linejoin="round" stroke-miterlimit="10" d="
		M125.78,544.505c2.868,0,4.262,10.354,7.187,10.354c4.709,0,4.377-11.93,8.937-13.074c7.534-1.896,20.524-2.283,20.524-2.283v0.002
		c0,0-13.332-0.174-21.133-2.283c-4.671-1.264-4.398-13.076-9.262-13.076c-3.021,0-4.459,11.223-7.422,11.223
		c-4.208,0-6.862-33.365-14.667-33.365c-9.821,0-9.821,29.74-19.643,29.74c-9.823,0-9.823-29.74-19.646-29.74
		c-7.809,0-10.148,33.367-14.672,33.367c-2.963,0-4.398-11.223-7.422-11.223c-4.863,0-4.591,11.812-9.263,13.076
		c-7.799,2.109-21.131,2.283-21.131,2.283v-0.002c0,0,12.989,0.389,20.523,2.283c4.56,1.145,4.228,13.074,8.937,13.074
		c2.925,0,4.318-10.355,7.187-10.355l0,0c4.991,0,5.083,32.494,10.083,32.494c6.475,0,6.475-37.447,12.951-37.447
		c6.475,0,5.978,17.92,12.452,17.92c6.474,0,6.97-17.92,13.445-17.92c6.474,0,6.474,37.447,12.944,37.447
		c4.83,0,5.255-32.494,9.054-32.494"/>
	<g>
		<path fill="#333333" d="M208.692,550.179c-1.425,0-2.59-1.164-2.59-2.586v-7.855c0-2.502-1.076-4.486-3.752-4.486
			c-2.849,0-3.886,2.203-3.886,4.486v7.855c0,1.422-1.166,2.586-2.588,2.586c-1.424,0-2.633-1.164-2.633-2.586v-7.855
			c0-2.502-1.078-4.486-3.756-4.486c-2.891,0-3.882,2.203-3.882,4.486v7.855c0,1.422-1.164,2.586-2.59,2.586
			c-1.424,0-2.589-1.164-2.589-2.586v-14.199c0-1.426,0.993-2.633,2.589-2.633c1.51,0,2.59,1.207,2.59,2.633v0.346
			c1.077-1.982,3.065-3.15,5.393-3.15c2.763,0,4.792,1.252,6.04,3.238c1.341-1.943,3.711-3.238,6.647-3.238
			c5.223,0,7.639,3.541,7.639,8.719v8.287C211.324,549.015,210.117,550.179,208.692,550.179z"/>
		<path fill="#333333" d="M219.675,533.351c0-1.424,1.166-2.59,2.591-2.59c1.423,0,2.589,1.166,2.589,2.59v8.457
			c0,2.33,1.555,3.971,3.971,3.971s3.967-1.641,3.967-3.971v-8.457c0-1.424,1.168-2.59,2.59-2.59c1.426,0,2.59,1.166,2.59,2.59
			v8.068c0,5.18-3.926,8.932-9.146,8.932c-5.222,0-9.147-3.752-9.147-8.932v-8.068H219.675z"/>
		<path fill="#333333" d="M258.973,536.242c-0.688,0-1.468-0.475-2.288-0.82c-1.163-0.473-2.114-0.688-3.191-0.688
			c-1.598,0-2.676,0.389-2.676,1.424c0,1.078,0.819,1.467,3.581,2.201c4.099,1.121,7.034,2.369,7.034,6.213
			c0,3.453-2.893,5.779-7.77,5.779c-2.676,0-5.177-0.73-6.816-1.938c-0.82-0.605-1.123-1.381-1.123-2.201
			c0-0.994,0.863-1.684,1.898-1.684c0.864,0,1.424,0.344,2.026,0.732c0.908,0.562,2.333,1.293,4.146,1.293
			c1.64,0,2.719-0.561,2.719-1.551c0-1.037-0.991-1.467-3.539-2.16c-5.479-1.465-7.076-3.625-7.076-6.645
			c0-3.15,2.633-5.609,7.725-5.609c1.641,0,3.235,0.303,4.703,0.992c1.512,0.693,2.635,1.598,2.635,2.764
			C260.958,535.421,260.396,536.242,258.973,536.242z"/>
		<path fill="#333333" d="M271.723,522.171c1.641,0,2.935,1.299,2.935,2.939c0,1.639-1.294,2.932-2.935,2.932
			c-1.64,0-2.935-1.293-2.935-2.932C268.789,523.47,270.083,522.171,271.723,522.171z M269.134,533.351
			c0-1.424,1.162-2.59,2.589-2.59c1.423,0,2.59,1.166,2.59,2.59v14.242c0,1.422-1.167,2.586-2.59,2.586
			c-1.427,0-2.589-1.164-2.589-2.586V533.351z"/>
		<path fill="#333333" d="M298.646,533.136c0.475,0.518,0.734,1.033,0.734,1.77c0,1.166-0.82,1.984-2.029,1.984
			c-0.688,0-1.123-0.174-1.596-0.52c-0.691-0.516-1.857-1.379-3.713-1.379c-3.322,0-5.047,2.59-5.047,5.479
			c0,2.891,1.725,5.48,5.047,5.48c1.854,0,3.021-0.861,3.713-1.381c0.473-0.346,0.906-0.518,1.596-0.518
			c1.209,0,2.029,0.818,2.029,1.984c0,0.732-0.26,1.254-0.734,1.77c-1.251,1.381-3.582,2.545-6.646,2.545
			c-6.256,0-10.182-4.357-10.182-9.881c0-5.521,3.926-9.883,10.182-9.883C295.064,530.587,297.396,531.755,298.646,533.136z"/>
		<path fill="#333333" d="M325.583,547.548c0,1.381-0.818,2.631-2.502,2.631c-1.728,0-2.502-1.25-2.502-2.631v-0.088
			c-0.994,1.684-2.892,2.891-5.61,2.891c-5.869,0-9.363-4.439-9.363-9.881c0-5.912,4.188-9.883,10.013-9.883
			c6.084,0,9.967,3.971,9.967,9.883v7.078H325.583z M315.617,535.076c-2.979,0-4.918,2.377-4.918,5.395
			c0,2.893,1.682,5.396,4.918,5.396c3.107,0,4.875-2.504,4.875-5.396C320.492,537.322,318.68,535.076,315.617,535.076z"/>
		<path fill="#333333" d="M334.149,523.339c0-1.426,1.166-2.59,2.59-2.59c1.423,0,2.591,1.164,2.591,2.59v24.254
			c0,1.422-1.168,2.586-2.591,2.586c-1.424,0-2.59-1.164-2.59-2.586V523.339z"/>
		<path fill="#333333" d="M348.169,523.339c0-1.426,1.168-2.59,2.59-2.59c1.426,0,2.591,1.164,2.591,2.59v24.254
			c0,1.422-1.165,2.586-2.591,2.586c-1.422,0-2.59-1.164-2.59-2.586V523.339z"/>
		<path fill="#333333" d="M364.966,557.947c-0.346,0.217-0.732,0.303-1.163,0.303c-1.253,0-2.331-0.994-2.331-2.158
			c0-0.906,0.432-1.467,1.254-2.115c1.812-1.422,2.889-2.504,3.839-4.654l-6.172-15.236c-0.127-0.301-0.215-0.605-0.215-0.947
			c0-1.297,0.948-2.375,2.329-2.375c1.123,0,1.814,0.518,2.158,1.381l4.832,12.428l4.059-12.428
			c0.259-0.863,0.906-1.381,2.156-1.381c1.379,0,2.287,1.078,2.287,2.375c0,0.344-0.086,0.732-0.172,0.947
			c-1.078,3.281-2.849,8.201-4.834,13.119C370.968,552.208,368.505,555.833,364.966,557.947z"/>
	</g>
</g>
<g>
	<rect x="0.169" y="224.001" fill="none" width="395.831" height="147"/>
	<g>
		<path fill="none" stroke="#000000" stroke-width="2" stroke-linecap="round" stroke-linejoin="round" stroke-miterlimit="10" d="
			M125.78,303.505c2.868,0,4.262,10.354,7.187,10.354c4.709,0,4.377-11.929,8.937-13.074c7.534-1.896,20.524-2.283,20.524-2.283
			v0.002c0,0-13.332-0.174-21.133-2.283c-4.671-1.264-4.398-13.076-9.262-13.076c-3.021,0-4.459,11.223-7.422,11.223
			c-4.208,0-6.862-33.365-14.667-33.365c-9.821,0-9.821,29.74-19.643,29.74c-9.823,0-9.823-29.74-19.646-29.74
			c-7.809,0-10.148,33.367-14.672,33.367c-2.963,0-4.398-11.223-7.422-11.223c-4.863,0-4.591,11.812-9.263,13.076
			c-7.799,2.109-21.131,2.283-21.131,2.283v-0.002c0,0,12.989,0.389,20.523,2.283c4.56,1.146,4.228,13.074,8.937,13.074
			c2.925,0,4.318-10.355,7.187-10.355l0,0c4.991,0,5.083,32.494,10.083,32.494c6.475,0,6.475-37.446,12.951-37.446
			c6.475,0,5.978,17.919,12.452,17.919c6.474,0,6.97-17.919,13.445-17.919c6.474,0,6.474,37.446,12.944,37.446
			c4.83,0,5.255-32.494,9.054-32.494"/>
		<g>
			<path d="M208.692,309.179c-1.425,0-2.59-1.164-2.59-2.586v-7.856c0-2.502-1.076-4.485-3.752-4.485
				c-2.849,0-3.886,2.203-3.886,4.485v7.856c0,1.422-1.166,2.586-2.588,2.586c-1.424,0-2.633-1.164-2.633-2.586v-7.856
				c0-2.502-1.078-4.485-3.756-4.485c-2.891,0-3.882,2.203-3.882,4.485v7.856c0,1.422-1.164,2.586-2.59,2.586
				c-1.424,0-2.589-1.164-2.589-2.586v-14.198c0-1.427,0.993-2.633,2.589-2.633c1.51,0,2.59,1.206,2.59,2.633v0.344
				c1.077-1.981,3.065-3.149,5.393-3.149c2.763,0,4.792,1.252,6.04,3.238c1.341-1.943,3.711-3.238,6.647-3.238
				c5.223,0,7.639,3.541,7.639,8.719v8.287C211.324,308.015,210.117,309.179,208.692,309.179z"/>
			<path d="M219.675,292.352c0-1.425,1.166-2.59,2.591-2.59c1.423,0,2.589,1.165,2.589,2.59v8.457c0,2.33,1.555,3.969,3.971,3.969
				s3.967-1.639,3.967-3.969v-8.457c0-1.425,1.168-2.59,2.59-2.59c1.426,0,2.59,1.165,2.59,2.59v8.067
				c0,5.181-3.926,8.932-9.146,8.932c-5.222,0-9.147-3.751-9.147-8.932v-8.067H219.675z"/>
			<path d="M258.973,295.242c-0.688,0-1.468-0.475-2.288-0.82c-1.163-0.473-2.114-0.688-3.191-0.688
				c-1.598,0-2.676,0.39-2.676,1.425c0,1.077,0.819,1.467,3.581,2.2c4.099,1.123,7.034,2.371,7.034,6.213
				c0,3.454-2.893,5.78-7.77,5.78c-2.676,0-5.177-0.73-6.816-1.938c-0.82-0.605-1.123-1.381-1.123-2.201
				c0-0.994,0.863-1.685,1.898-1.685c0.864,0,1.424,0.345,2.026,0.734c0.908,0.562,2.333,1.293,4.146,1.293
				c1.64,0,2.719-0.562,2.719-1.552c0-1.036-0.991-1.467-3.539-2.159c-5.479-1.466-7.076-3.625-7.076-6.646
				c0-3.15,2.633-5.609,7.725-5.609c1.641,0,3.235,0.303,4.703,0.992c1.512,0.692,2.635,1.598,2.635,2.764
				C260.958,294.421,260.396,295.242,258.973,295.242z"/>
			<path d="M271.723,281.171c1.641,0,2.935,1.3,2.935,2.939c0,1.639-1.294,2.932-2.935,2.932c-1.64,0-2.935-1.293-2.935-2.932
				C268.789,282.471,270.083,281.171,271.723,281.171z M269.134,292.352c0-1.425,1.162-2.59,2.589-2.59
				c1.423,0,2.59,1.165,2.59,2.59v14.241c0,1.422-1.167,2.586-2.59,2.586c-1.427,0-2.589-1.164-2.589-2.586V292.352z"/>
			<path d="M298.646,292.137c0.475,0.516,0.734,1.032,0.734,1.768c0,1.166-0.82,1.986-2.029,1.986c-0.688,0-1.123-0.175-1.596-0.521
				c-0.691-0.517-1.857-1.379-3.713-1.379c-3.322,0-5.047,2.59-5.047,5.479s1.725,5.479,5.047,5.479
				c1.854,0,3.021-0.861,3.713-1.381c0.473-0.346,0.906-0.518,1.596-0.518c1.209,0,2.029,0.818,2.029,1.984
				c0,0.733-0.26,1.254-0.734,1.77c-1.251,1.381-3.582,2.545-6.646,2.545c-6.256,0-10.182-4.357-10.182-9.881
				c0-5.521,3.926-9.883,10.182-9.883C295.064,289.587,297.396,290.755,298.646,292.137z"/>
			<path d="M325.583,306.548c0,1.381-0.818,2.631-2.502,2.631c-1.728,0-2.502-1.25-2.502-2.631v-0.088
				c-0.994,1.684-2.892,2.891-5.61,2.891c-5.869,0-9.363-4.439-9.363-9.88c0-5.912,4.188-9.884,10.013-9.884
				c6.084,0,9.967,3.972,9.967,9.884v7.077H325.583z M315.617,294.076c-2.979,0-4.918,2.377-4.918,5.396
				c0,2.891,1.682,5.396,4.918,5.396c3.107,0,4.875-2.505,4.875-5.396C320.492,296.322,318.68,294.076,315.617,294.076z"/>
			<path d="M334.149,282.339c0-1.426,1.166-2.588,2.59-2.588c1.423,0,2.591,1.162,2.591,2.588v24.254
				c0,1.422-1.168,2.586-2.591,2.586c-1.424,0-2.59-1.164-2.59-2.586V282.339z"/>
			<path d="M348.169,282.339c0-1.426,1.168-2.588,2.59-2.588c1.426,0,2.591,1.162,2.591,2.588v24.254
				c0,1.422-1.165,2.586-2.591,2.586c-1.422,0-2.59-1.164-2.59-2.586V282.339z"/>
			<path d="M364.966,316.947c-0.346,0.217-0.732,0.303-1.163,0.303c-1.253,0-2.331-0.994-2.331-2.158
				c0-0.906,0.432-1.467,1.254-2.115c1.812-1.422,2.889-2.504,3.839-4.654l-6.172-15.236c-0.127-0.301-0.215-0.604-0.215-0.947
				c0-1.297,0.948-2.375,2.329-2.375c1.123,0,1.814,0.518,2.158,1.381l4.832,12.428l4.059-12.428
				c0.259-0.863,0.906-1.381,2.156-1.381c1.379,0,2.287,1.078,2.287,2.375c0,0.344-0.086,0.732-0.172,0.947
				c-1.078,3.281-2.849,8.201-4.834,13.119C370.968,311.208,368.505,314.833,364.966,316.947z"/>
		</g>
	</g>
</g>
<g>
	<rect y="706.265" fill="none" width="395.832" height="147"/>
	<g>
		<path fill="none" stroke="#FFFFFF" stroke-width="2" stroke-linecap="round" stroke-linejoin="round" stroke-miterlimit="10" d="
			M125.611,784.771c2.868,0,4.262,10.352,7.187,10.352c4.709,0,4.377-11.928,8.937-13.074c7.534-1.895,20.524-2.283,20.524-2.283
			v0.002c0,0-13.332-0.174-21.133-2.281c-4.671-1.266-4.398-13.076-9.262-13.076c-3.021,0-4.459,11.223-7.422,11.223
			c-4.208,0-6.862-33.365-14.667-33.365c-9.821,0-9.821,29.74-19.643,29.74c-9.823,0-9.823-29.74-19.646-29.74
			c-7.809,0-10.148,33.367-14.672,33.367c-2.963,0-4.398-11.223-7.422-11.223c-4.863,0-4.591,11.811-9.263,13.076
			C31.332,779.595,18,779.769,18,779.769v-0.002c0,0,12.989,0.389,20.523,2.283c4.56,1.146,4.228,13.074,8.937,13.074
			c2.925,0,4.318-10.355,7.187-10.355l0,0c4.991,0,5.083,32.494,10.083,32.494c6.475,0,6.475-37.445,12.951-37.445
			c6.475,0,5.978,17.92,12.452,17.92c6.474,0,6.97-17.92,13.445-17.92c6.474,0,6.474,37.445,12.944,37.445
			c4.83,0,5.255-32.494,9.054-32.494"/>
		<g>
			<path fill="#FFFFFF" d="M208.523,790.445c-1.425,0-2.59-1.164-2.59-2.586v-7.857c0-2.502-1.076-4.486-3.752-4.486
				c-2.85,0-3.885,2.203-3.885,4.486v7.857c0,1.422-1.166,2.586-2.589,2.586c-1.424,0-2.633-1.164-2.633-2.586v-7.857
				c0-2.502-1.078-4.486-3.756-4.486c-2.891,0-3.882,2.203-3.882,4.486v7.857c0,1.422-1.164,2.586-2.59,2.586
				c-1.424,0-2.589-1.164-2.589-2.586V773.66c0-1.426,0.993-2.633,2.589-2.633c1.51,0,2.59,1.207,2.59,2.633v0.344
				c1.077-1.982,3.065-3.15,5.393-3.15c2.763,0,4.792,1.252,6.04,3.238c1.341-1.943,3.712-3.238,6.647-3.238
				c5.222,0,7.638,3.541,7.638,8.719v8.287C211.155,789.281,209.947,790.445,208.523,790.445z"/>
			<path fill="#FFFFFF" d="M219.507,773.617c0-1.424,1.164-2.59,2.59-2.59c1.423,0,2.589,1.166,2.589,2.59v8.457
				c0,2.33,1.554,3.969,3.97,3.969s3.969-1.639,3.969-3.969v-8.457c0-1.424,1.166-2.59,2.588-2.59c1.427,0,2.591,1.166,2.591,2.59
				v8.066c0,5.182-3.927,8.934-9.146,8.934c-5.223,0-9.148-3.752-9.148-8.934v-8.066H219.507z"/>
			<path fill="#FFFFFF" d="M258.804,776.507c-0.689,0-1.467-0.475-2.288-0.82c-1.163-0.473-2.114-0.689-3.192-0.689
				c-1.597,0-2.675,0.389-2.675,1.424c0,1.078,0.819,1.467,3.581,2.201c4.098,1.123,7.034,2.371,7.034,6.213
				c0,3.453-2.894,5.781-7.769,5.781c-2.677,0-5.178-0.732-6.818-1.939c-0.819-0.604-1.122-1.381-1.122-2.201
				c0-0.992,0.864-1.684,1.899-1.684c0.863,0,1.424,0.344,2.025,0.734c0.908,0.561,2.333,1.293,4.146,1.293
				c1.639,0,2.717-0.561,2.717-1.551c0-1.037-0.99-1.467-3.538-2.16c-5.479-1.465-7.076-3.625-7.076-6.646
				c0-3.15,2.633-5.609,7.724-5.609c1.641,0,3.236,0.305,4.704,0.992c1.511,0.693,2.634,1.6,2.634,2.766
				C260.791,775.687,260.228,776.507,258.804,776.507z"/>
			<path fill="#FFFFFF" d="M271.554,762.437c1.641,0,2.935,1.299,2.935,2.939c0,1.639-1.294,2.932-2.935,2.932
				c-1.639,0-2.934-1.293-2.934-2.932C268.621,763.736,269.916,762.437,271.554,762.437z M268.964,773.617
				c0-1.424,1.164-2.59,2.59-2.59c1.423,0,2.59,1.166,2.59,2.59v14.242c0,1.422-1.167,2.586-2.59,2.586
				c-1.426,0-2.59-1.164-2.59-2.586V773.617z"/>
			<path fill="#FFFFFF" d="M298.478,773.402c0.475,0.516,0.734,1.031,0.734,1.768c0,1.166-0.82,1.986-2.029,1.986
				c-0.688,0-1.123-0.174-1.596-0.521c-0.691-0.516-1.857-1.379-3.713-1.379c-3.322,0-5.047,2.59-5.047,5.48
				c0,2.889,1.725,5.479,5.047,5.479c1.854,0,3.021-0.861,3.713-1.381c0.473-0.346,0.906-0.518,1.596-0.518
				c1.209,0,2.029,0.818,2.029,1.984c0,0.734-0.26,1.254-0.734,1.77c-1.251,1.381-3.582,2.545-6.646,2.545
				c-6.256,0-10.182-4.357-10.182-9.881c0-5.521,3.926-9.883,10.182-9.883C294.896,770.853,297.227,772.021,298.478,773.402z"/>
			<path fill="#FFFFFF" d="M325.416,787.812c0,1.383-0.819,2.633-2.504,2.633c-1.727,0-2.502-1.25-2.502-2.633v-0.088
				c-0.992,1.686-2.891,2.893-5.609,2.893c-5.869,0-9.363-4.441-9.363-9.881c0-5.912,4.188-9.885,10.012-9.885
				c6.084,0,9.967,3.973,9.967,9.885V787.812L325.416,787.812z M315.449,775.341c-2.98,0-4.92,2.377-4.92,5.395
				c0,2.891,1.684,5.395,4.92,5.395c3.106,0,4.875-2.504,4.875-5.395C320.324,777.587,318.511,775.341,315.449,775.341z"/>
			<path fill="#FFFFFF" d="M333.98,763.603c0-1.426,1.166-2.59,2.59-2.59s2.59,1.164,2.59,2.59v24.256
				c0,1.422-1.166,2.586-2.59,2.586s-2.59-1.164-2.59-2.586V763.603z"/>
			<path fill="#FFFFFF" d="M348.001,763.603c0-1.426,1.166-2.59,2.588-2.59c1.427,0,2.592,1.164,2.592,2.59v24.256
				c0,1.422-1.165,2.586-2.592,2.586c-1.422,0-2.588-1.164-2.588-2.586V763.603z"/>
			<path fill="#FFFFFF" d="M364.796,798.212c-0.344,0.217-0.731,0.303-1.162,0.303c-1.252,0-2.331-0.994-2.331-2.158
				c0-0.906,0.432-1.467,1.254-2.115c1.812-1.422,2.888-2.504,3.839-4.656l-6.172-15.236c-0.127-0.301-0.215-0.604-0.215-0.945
				c0-1.299,0.949-2.375,2.33-2.375c1.121,0,1.813,0.518,2.156,1.381l4.834,12.428l4.058-12.428
				c0.259-0.863,0.905-1.381,2.157-1.381c1.379,0,2.287,1.076,2.287,2.375c0,0.344-0.086,0.73-0.174,0.945
				c-1.078,3.281-2.848,8.201-4.834,13.119C370.798,792.474,368.337,796.099,364.796,798.212z"/>
		</g>
	</g>
</g>
<g>
	
		<linearGradient id="SVGID_6_" gradientUnits="userSpaceOnUse" x1="-83.8311" y1="-890.7671" x2="311.9995" y2="-890.7671" gradientTransform="matrix(1 0 0 -1 84 121.999)">
		<stop  offset="0" style="stop-color:#0B9BFA"/>
		<stop  offset="1" style="stop-color:#6B04ED"/>
	</linearGradient>
	<rect x="0.169" y="939.267" fill="url(#SVGID_6_)" width="395.831" height="146.998"/>
	<g>
		<path fill="none" stroke="#FFFFFF" stroke-width="2" stroke-linecap="round" stroke-linejoin="round" stroke-miterlimit="10" d="
			M125.78,1017.771c2.868,0,4.262,10.352,7.187,10.352c4.709,0,4.377-11.928,8.937-13.074c7.534-1.895,20.524-2.283,20.524-2.283
			v0.002c0,0-13.332-0.174-21.133-2.281c-4.671-1.266-4.398-13.076-9.262-13.076c-3.021,0-4.459,11.223-7.422,11.223
			c-4.208,0-6.862-33.365-14.667-33.365c-9.821,0-9.821,29.74-19.643,29.74c-9.823,0-9.823-29.74-19.646-29.74
			c-7.809,0-10.148,33.367-14.672,33.367c-2.963,0-4.398-11.223-7.422-11.223c-4.863,0-4.591,11.811-9.263,13.076
			c-7.799,2.107-21.131,2.283-21.131,2.283v-0.004c0,0,12.989,0.391,20.523,2.283c4.56,1.146,4.228,13.074,8.937,13.074
			c2.925,0,4.318-10.354,7.187-10.354l0,0c4.991,0,5.083,32.494,10.083,32.494c6.475,0,6.475-37.447,12.951-37.447
			c6.475,0,5.978,17.92,12.452,17.92c6.474,0,6.97-17.92,13.445-17.92c6.474,0,6.474,37.447,12.944,37.447
			c4.83,0,5.255-32.494,9.054-32.494"/>
		<g>
			<path fill="#FFFFFF" d="M208.692,1023.445c-1.425,0-2.59-1.164-2.59-2.586v-7.857c0-2.502-1.076-4.486-3.752-4.486
				c-2.849,0-3.886,2.203-3.886,4.486v7.857c0,1.422-1.166,2.586-2.588,2.586c-1.424,0-2.633-1.164-2.633-2.586v-7.857
				c0-2.502-1.078-4.486-3.756-4.486c-2.891,0-3.882,2.203-3.882,4.486v7.857c0,1.422-1.164,2.586-2.59,2.586
				c-1.424,0-2.589-1.164-2.589-2.586v-14.199c0-1.426,0.993-2.633,2.589-2.633c1.51,0,2.59,1.207,2.59,2.633v0.344
				c1.077-1.98,3.065-3.15,5.393-3.15c2.763,0,4.792,1.254,6.04,3.238c1.341-1.941,3.711-3.238,6.647-3.238
				c5.223,0,7.639,3.541,7.639,8.721v8.287C211.324,1022.281,210.117,1023.445,208.692,1023.445z"/>
			<path fill="#FFFFFF" d="M219.675,1006.617c0-1.424,1.166-2.59,2.591-2.59c1.423,0,2.589,1.166,2.589,2.59v8.457
				c0,2.33,1.555,3.969,3.971,3.969s3.967-1.639,3.967-3.969v-8.457c0-1.424,1.168-2.59,2.59-2.59c1.426,0,2.59,1.166,2.59,2.59
				v8.068c0,5.18-3.926,8.932-9.146,8.932c-5.222,0-9.147-3.752-9.147-8.932v-8.068H219.675z"/>
			<path fill="#FFFFFF" d="M258.973,1009.507c-0.688,0-1.468-0.475-2.288-0.82c-1.163-0.473-2.114-0.688-3.191-0.688
				c-1.598,0-2.676,0.389-2.676,1.424c0,1.078,0.819,1.467,3.581,2.201c4.099,1.123,7.034,2.371,7.034,6.213
				c0,3.453-2.893,5.781-7.77,5.781c-2.676,0-5.177-0.732-6.816-1.939c-0.82-0.605-1.123-1.381-1.123-2.201
				c0-0.994,0.863-1.684,1.898-1.684c0.864,0,1.424,0.344,2.026,0.734c0.908,0.561,2.333,1.293,4.146,1.293
				c1.64,0,2.719-0.562,2.719-1.553c0-1.035-0.991-1.467-3.539-2.158c-5.479-1.467-7.076-3.625-7.076-6.646
				c0-3.15,2.633-5.609,7.725-5.609c1.641,0,3.235,0.303,4.703,0.992c1.512,0.693,2.635,1.598,2.635,2.764
				C260.958,1008.687,260.396,1009.507,258.973,1009.507z"/>
			<path fill="#FFFFFF" d="M271.723,995.437c1.641,0,2.935,1.301,2.935,2.939s-1.294,2.932-2.935,2.932
				c-1.64,0-2.935-1.293-2.935-2.932C268.789,996.736,270.083,995.437,271.723,995.437z M269.134,1006.617
				c0-1.424,1.162-2.59,2.589-2.59c1.423,0,2.59,1.166,2.59,2.59v14.242c0,1.422-1.167,2.586-2.59,2.586
				c-1.427,0-2.589-1.164-2.589-2.586V1006.617z"/>
			<path fill="#FFFFFF" d="M298.646,1006.402c0.475,0.516,0.734,1.033,0.734,1.768c0,1.166-0.82,1.986-2.029,1.986
				c-0.688,0-1.123-0.174-1.596-0.521c-0.691-0.516-1.857-1.379-3.713-1.379c-3.322,0-5.047,2.59-5.047,5.48s1.725,5.48,5.047,5.48
				c1.854,0,3.021-0.861,3.713-1.381c0.473-0.346,0.906-0.518,1.596-0.518c1.209,0,2.029,0.816,2.029,1.982
				c0,0.734-0.26,1.254-0.734,1.771c-1.251,1.381-3.582,2.545-6.646,2.545c-6.256,0-10.182-4.357-10.182-9.881
				c0-5.521,3.926-9.885,10.182-9.885C295.064,1003.853,297.396,1005.021,298.646,1006.402z"/>
			<path fill="#FFFFFF" d="M325.583,1020.814c0,1.381-0.818,2.631-2.502,2.631c-1.728,0-2.502-1.25-2.502-2.631v-0.088
				c-0.994,1.684-2.892,2.891-5.61,2.891c-5.869,0-9.363-4.441-9.363-9.881c0-5.912,4.188-9.883,10.013-9.883
				c6.084,0,9.967,3.971,9.967,9.883v7.078H325.583z M315.617,1008.341c-2.979,0-4.918,2.377-4.918,5.396
				c0,2.891,1.682,5.395,4.918,5.395c3.107,0,4.875-2.504,4.875-5.395C320.492,1010.587,318.68,1008.341,315.617,1008.341z"/>
			<path fill="#FFFFFF" d="M334.149,996.605c0-1.426,1.166-2.59,2.59-2.59c1.423,0,2.591,1.164,2.591,2.59v24.254
				c0,1.422-1.168,2.586-2.591,2.586c-1.424,0-2.59-1.164-2.59-2.586V996.605z"/>
			<path fill="#FFFFFF" d="M348.169,996.605c0-1.426,1.168-2.59,2.59-2.59c1.426,0,2.591,1.164,2.591,2.59v24.254
				c0,1.422-1.165,2.586-2.591,2.586c-1.422,0-2.59-1.164-2.59-2.586V996.605z"/>
			<path fill="#FFFFFF" d="M364.966,1031.212c-0.346,0.217-0.732,0.303-1.163,0.303c-1.253,0-2.331-0.994-2.331-2.156
				c0-0.906,0.432-1.469,1.254-2.115c1.812-1.422,2.889-2.504,3.839-4.656l-6.172-15.236c-0.127-0.301-0.215-0.604-0.215-0.947
				c0-1.297,0.948-2.375,2.329-2.375c1.123,0,1.814,0.518,2.158,1.381l4.832,12.428l4.059-12.428
				c0.259-0.863,0.906-1.381,2.156-1.381c1.379,0,2.287,1.078,2.287,2.375c0,0.344-0.086,0.732-0.172,0.947
				c-1.078,3.281-2.849,8.201-4.834,13.119C370.968,1025.474,368.505,1029.099,364.966,1031.212z"/>
		</g>
	</g>
</g>
<circle fill="#007ECB" cx="170.003" cy="-136.679" r="42.52"/>
<circle fill="#3A3A3A" cx="297.317" cy="-136.679" r="42.52"/>
<circle fill="#0B9BFA" cx="42.689" cy="-136.679" r="42.52"/>
<circle fill="#2842AB" cx="551.945" cy="-136.678" r="42.52"/>
<circle fill="#AFAFAF" cx="679.259" cy="-136.679" r="42.52"/>
<circle fill="#6B04ED" cx="424.63" cy="-136.678" r="42.52"/>
<text transform="matrix(1 0 0 1 -220.7046 74.4683)" font-family="'Nunito-Regular'" font-size="21">Full color</text>
<text transform="matrix(1 0 0 1 -220.7046 299.5562)" font-family="'Nunito-Regular'" font-size="21">Negro</text>
<text transform="matrix(1 0 0 1 -220.7046 558.2495)" font-family="'Nunito-Regular'" font-size="21">Escala de grises</text>
<text transform="matrix(1 0 0 1 -220.7046 1005.9644)" font-family="'Nunito-Regular'" font-size="21">Blanco</text>
<text transform="matrix(1 0 0 1 -220.7046 1031.1636)" font-family="'Nunito-Regular'" font-size="21">fondo color</text>
<text transform="matrix(1 0 0 1 -220.7046 761.0132)" font-family="'Nunito-Regular'" font-size="21">Blanco</text>
<text transform="matrix(1 0 0 1 -220.7046 786.2144)" font-family="'Nunito-Regular'" font-size="21">fondo transparente</text>
</svg>
